<?xml version="1.0" encoding="UTF-8"?>
<svg version="1.1" xmlns="http://www.w3.org/2000/svg" width="96" height="96">
<path d="M0 0 C1.08628693 0.00303635 1.08628693 0.00303635 2.19451904 0.00613403 C3.3334964 0.00350555 3.3334964 0.00350555 4.4954834 0.00082397 C7.0175807 -0.00359473 9.53960847 -0.00065649 12.06170654 0.00271606 C13.80666111 0.00204303 15.55161558 0.00107301 17.29656982 -0.00018311 C20.95852549 -0.0016601 24.62045682 0.00049454 28.28240967 0.00515747 C32.98715147 0.01085476 37.69183622 0.00757577 42.39657593 0.00158501 C46.00124546 -0.00202055 49.60590136 -0.00088204 53.21057129 0.0017128 C54.94580085 0.00238208 56.68103163 0.0015536 58.41625977 -0.00076675 C60.83717142 -0.0032932 63.25798941 0.00054718 65.67889404 0.00613403 C66.40308533 0.0041098 67.12727661 0.00208557 67.87341309 0 C72.82244388 0.0212659 72.82244388 0.0212659 73.93670654 1.13552856 C74.03591517 3.06314674 74.06470019 4.9944221 74.06610107 6.92459106 C74.06925323 8.16257446 74.0724054 9.40055786 74.07565308 10.67605591 C74.07386329 12.03754715 74.07181234 13.39903808 74.06951904 14.76052856 C74.07019213 16.14675921 74.0711622 17.53298973 74.07241821 18.91921997 C74.07389494 21.82792278 74.07174144 24.73659493 74.06707764 27.64529419 C74.06138035 31.38149455 74.06465949 35.11762308 74.0706501 38.8538208 C74.07425639 41.71732122 74.07311682 44.5808045 74.07052231 47.44430542 C74.06985323 48.82227588 74.07068081 50.20024788 74.07300186 51.57821655 C74.07552946 53.5009661 74.07099678 55.42372108 74.06610107 57.34646606 C74.06530548 58.44265259 74.06450989 59.53883911 74.06369019 60.66824341 C73.93670654 63.13552856 73.93670654 63.13552856 72.93670654 64.13552856 C70.50813619 64.23582713 68.10799041 64.27171281 65.67889404 64.2649231 C64.91957581 64.26667542 64.16025757 64.26842773 63.37792969 64.27023315 C60.85583239 64.27465186 58.33380462 64.27171362 55.81170654 64.26834106 C54.06675198 64.2690141 52.3217975 64.26998412 50.57684326 64.27124023 C46.91488759 64.27271723 43.25295627 64.27056259 39.59100342 64.26589966 C34.88626162 64.26020237 30.18157686 64.26348136 25.47683716 64.26947212 C21.87216763 64.27307768 18.26751173 64.27193917 14.6628418 64.26934433 C12.92761224 64.26867505 11.19238146 64.26950353 9.45715332 64.27182388 C7.03624167 64.27435033 4.61542368 64.27050995 2.19451904 64.2649231 C1.47032776 64.26694733 0.74613647 64.26897156 0 64.27105713 C-4.94903079 64.24979123 -4.94903079 64.24979123 -6.06329346 63.13552856 C-6.16250209 61.20791039 -6.1912871 59.27663502 -6.19268799 57.34646606 C-6.19584015 56.10848267 -6.19899231 54.87049927 -6.20223999 53.59500122 C-6.20045021 52.23350998 -6.19839925 50.87201905 -6.19610596 49.51052856 C-6.19677905 48.12429792 -6.19774912 46.73806739 -6.19900513 45.35183716 C-6.20048186 42.44313435 -6.19832835 39.53446219 -6.19366455 36.62576294 C-6.18796726 32.88956258 -6.1912464 29.15343405 -6.19723701 25.41723633 C-6.20084331 22.55373591 -6.19970373 19.69025263 -6.19710922 16.82675171 C-6.19644014 15.44878125 -6.19726772 14.07080925 -6.19958878 12.69284058 C-6.20211637 10.77009102 -6.19758369 8.84733604 -6.19268799 6.92459106 C-6.1918924 5.82840454 -6.1910968 4.73221802 -6.1902771 3.60281372 C-5.96216838 -0.82932611 -3.93117376 0.01689219 0 0 Z " fill="#5CC0DE" transform="translate(14.06329345703125,15.864471435546875)"/>
<path d="M0 0 C1.08628693 0.00303635 1.08628693 0.00303635 2.19451904 0.00613403 C3.3334964 0.00350555 3.3334964 0.00350555 4.4954834 0.00082397 C7.0175807 -0.00359473 9.53960847 -0.00065649 12.06170654 0.00271606 C13.80666111 0.00204303 15.55161558 0.00107301 17.29656982 -0.00018311 C20.95852549 -0.0016601 24.62045682 0.00049454 28.28240967 0.00515747 C32.98715147 0.01085476 37.69183622 0.00757577 42.39657593 0.00158501 C46.00124546 -0.00202055 49.60590136 -0.00088204 53.21057129 0.0017128 C54.94580085 0.00238208 56.68103163 0.0015536 58.41625977 -0.00076675 C60.83717142 -0.0032932 63.25798941 0.00054718 65.67889404 0.00613403 C66.40308533 0.0041098 67.12727661 0.00208557 67.87341309 0 C72.82244388 0.0212659 72.82244388 0.0212659 73.93670654 1.13552856 C73.93670654 5.42552856 73.93670654 9.71552856 73.93670654 14.13552856 C47.53670654 14.13552856 21.13670654 14.13552856 -6.06329346 14.13552856 C-6.06329346 0.02605387 -6.06329346 0.02605387 0 0 Z " fill="#0568BA" transform="translate(14.06329345703125,15.864471435546875)"/>
<path d="M0 0 C0.804375 -0.00128906 1.60875 -0.00257812 2.4375 -0.00390625 C3.283125 -0.00003906 4.12875 0.00382812 5 0.0078125 C6.2684375 0.00201172 6.2684375 0.00201172 7.5625 -0.00390625 C8.366875 -0.00261719 9.17125 -0.00132813 10 0 C10.7425 0.00112793 11.485 0.00225586 12.25 0.00341797 C14 0.1328125 14 0.1328125 15 1.1328125 C15.10095564 3.78737443 15.13970998 6.41536426 15.1328125 9.0703125 C15.13424759 10.26321899 15.13424759 10.26321899 15.13571167 11.48022461 C15.13639343 13.1648771 15.13453943 14.84953221 15.13037109 16.53417969 C15.12502275 19.12180447 15.13031619 21.70925566 15.13671875 24.296875 C15.13605797 25.92968789 15.1347768 27.56250066 15.1328125 29.1953125 C15.13483673 29.97447021 15.13686096 30.75362793 15.13894653 31.55639648 C15.11495105 37.01786145 15.11495105 37.01786145 14 38.1328125 C12.58429877 38.21932861 11.164405 38.23986154 9.74609375 38.23046875 C8.89208984 38.22724609 8.03808594 38.22402344 7.15820312 38.22070312 C6.26037109 38.21232422 5.36253906 38.20394531 4.4375 38.1953125 C3.53580078 38.19080078 2.63410156 38.18628906 1.70507812 38.18164062 C-0.53001314 38.16981475 -2.76497437 38.1533347 -5 38.1328125 C-5.02464928 32.88175808 -5.04283568 27.63073705 -5.05493164 22.37963867 C-5.05997218 20.59187229 -5.06680454 18.80411005 -5.07543945 17.01635742 C-5.0875173 14.45230082 -5.09323094 11.88829853 -5.09765625 9.32421875 C-5.10281754 8.5200502 -5.10797882 7.71588165 -5.11329651 6.88734436 C-5.11349215 4.96879535 -5.06201983 3.05035882 -5 1.1328125 C-3.4779041 -0.3892834 -2.11789918 0.00321729 0 0 Z " fill="#0D86AD" transform="translate(67,35.8671875)"/>
<path d="M0 0 C1.29997925 0.00303635 1.29997925 0.00303635 2.6262207 0.00613403 C3.51027588 0.00517731 4.39433105 0.00422058 5.30517578 0.00323486 C7.178142 0.00255302 9.05111056 0.0044076 10.92407227 0.00857544 C13.80140458 0.01392364 16.67858078 0.0086306 19.5559082 0.00222778 C21.37101272 0.00288856 23.18611713 0.00416972 25.0012207 0.00613403 C25.86787354 0.0041098 26.73452637 0.00208557 27.62744141 0 C33.69877061 0.02399644 33.69877061 0.02399644 34.8137207 1.13894653 C34.91281373 3.47054708 34.94342574 5.80524595 34.9387207 8.13894653 C34.94258789 10.05707153 34.94258789 10.05707153 34.9465332 12.01394653 C34.8137207 15.13894653 34.8137207 15.13894653 33.8137207 16.13894653 C30.868365 16.24005006 27.94694511 16.27863933 25.0012207 16.27175903 C23.67513794 16.27319412 23.67513794 16.27319412 22.32226562 16.2746582 C20.44929941 16.27534005 18.57633084 16.27348546 16.70336914 16.26931763 C13.82603683 16.26396943 10.94886062 16.26926247 8.0715332 16.27566528 C6.25642869 16.2750045 4.44132427 16.27372334 2.6262207 16.27175903 C1.75956787 16.27378326 0.89291504 16.2758075 0 16.27789307 C-6.0713292 16.25389663 -6.0713292 16.25389663 -7.1862793 15.13894653 C-7.28537232 12.80734598 -7.31598434 10.47264712 -7.3112793 8.13894653 C-7.31385742 6.86019653 -7.31643555 5.58144653 -7.3190918 4.26394653 C-7.08836999 -1.16480195 -4.86852036 0.01924243 0 0 Z " fill="#0D86AD" transform="translate(21.186279296875,57.861053466796875)"/>
<path d="M0 0 C1.29997925 0.00303635 1.29997925 0.00303635 2.6262207 0.00613403 C3.51027588 0.00517731 4.39433105 0.00422058 5.30517578 0.00323486 C7.178142 0.00255302 9.05111056 0.0044076 10.92407227 0.00857544 C13.80140458 0.01392364 16.67858078 0.0086306 19.5559082 0.00222778 C21.37101272 0.00288856 23.18611713 0.00416972 25.0012207 0.00613403 C25.86787354 0.0041098 26.73452637 0.00208557 27.62744141 0 C33.69877061 0.02399644 33.69877061 0.02399644 34.8137207 1.13894653 C34.91281373 3.47054708 34.94342574 5.80524595 34.9387207 8.13894653 C34.94258789 10.05707153 34.94258789 10.05707153 34.9465332 12.01394653 C34.8137207 15.13894653 34.8137207 15.13894653 33.8137207 16.13894653 C30.868365 16.24005006 27.94694511 16.27863933 25.0012207 16.27175903 C23.67513794 16.27319412 23.67513794 16.27319412 22.32226562 16.2746582 C20.44929941 16.27534005 18.57633084 16.27348546 16.70336914 16.26931763 C13.82603683 16.26396943 10.94886062 16.26926247 8.0715332 16.27566528 C6.25642869 16.2750045 4.44132427 16.27372334 2.6262207 16.27175903 C1.75956787 16.27378326 0.89291504 16.2758075 0 16.27789307 C-6.0713292 16.25389663 -6.0713292 16.25389663 -7.1862793 15.13894653 C-7.28537232 12.80734598 -7.31598434 10.47264712 -7.3112793 8.13894653 C-7.31385742 6.86019653 -7.31643555 5.58144653 -7.3190918 4.26394653 C-7.08836999 -1.16480195 -4.86852036 0.01924243 0 0 Z " fill="#0D86AD" transform="translate(21.186279296875,35.861053466796875)"/>
<path d="M0 0 C17.16 0 34.32 0 52 0 C52 1.98 52 3.96 52 6 C34.84 6 17.68 6 0 6 C0 4.02 0 2.04 0 0 Z " fill="#60C3E1" transform="translate(32,20)"/>
<path d="M0 0 C1.65 0.33 3.3 0.66 5 1 C4.67 2.65 4.34 4.3 4 6 C2.35 5.67 0.7 5.34 -1 5 C-0.67 3.35 -0.34 1.7 0 0 Z " fill="#4FBDF0" transform="translate(23,20)"/>
<path d="M0 0 C1.65 0.33 3.3 0.66 5 1 C4.67 2.65 4.34 4.3 4 6 C2.35 5.67 0.7 5.34 -1 5 C-0.67 3.35 -0.34 1.7 0 0 Z " fill="#4EBDF1" transform="translate(13,20)"/>
</svg>
