<?xml version="1.0" encoding="UTF-8"?>
<svg version="1.1" xmlns="http://www.w3.org/2000/svg" width="512" height="512">
<path d="M0 0 C2.14132334 4.23328993 4.2774277 8.4691561 6.40869141 12.70751953 C7.13479257 14.14965065 7.86232665 15.59106122 8.59130859 17.03173828 C9.63754818 19.10001872 10.67864446 21.170817 11.71875 23.2421875 C12.21091003 24.21102371 12.21091003 24.21102371 12.7130127 25.19943237 C15 29.77225659 15 29.77225659 15 32 C21.04046113 29.86387401 27.0805816 27.72678779 33.1204834 25.58908081 C35.28615214 24.82277882 37.45192328 24.05676617 39.61779785 23.29104614 C51.55651251 19.07024454 63.48894603 14.83390156 75.3984375 10.53125 C77.33281693 9.83398773 79.26722385 9.13680172 81.20166016 8.43969727 C83.96403031 7.44412025 86.72552594 6.44641304 89.48455811 5.44161987 C92.02420813 4.51676326 94.56647394 3.599466 97.109375 2.68359375 C98.2280043 2.27234253 98.2280043 2.27234253 99.36923218 1.8527832 C102.81917068 0.61783532 105.28606252 0 109 0 C117.95620373 24.89292584 126.70375965 49.85956134 135.47558594 74.81787109 C138.71556908 84.03635375 141.95732814 93.25421121 145.20019531 102.47167969 C146.7683295 106.92898427 148.33527397 111.3867045 149.90136719 115.84472656 C153.5457824 126.21452141 157.20138912 136.58004451 160.89204407 146.93348694 C162.58738838 151.68982382 164.27854684 156.44764504 165.96969604 161.20547485 C166.77591761 163.46929975 167.58441858 165.73231428 168.39529419 167.99447632 C169.51256587 171.11156039 170.62228659 174.23123765 171.73046875 177.3515625 C172.06382233 178.27488876 172.3971759 179.19821503 172.7406311 180.14952087 C173.04044891 180.99817215 173.34026672 181.84682343 173.64916992 182.72119141 C173.9116301 183.45544342 174.17409027 184.18969543 174.44450378 184.94619751 C175 187 175 187 175 191 C147.19101124 202 147.19101124 202 143 202 C143 211.9 143 221.8 143 232 C149.9706143 231.84247911 149.9706143 231.84247911 156.93994141 231.63964844 C162.79173126 231.57308983 166.51877487 231.83590772 171 236 C174.80391406 240.70297338 175.58081198 244.40480147 175.51757812 250.296875 C175.52809204 251.5126825 175.52809204 251.5126825 175.53881836 252.75305176 C175.55635204 255.41905482 175.54479247 258.08398708 175.53125 260.75 C175.53394625 262.61035362 175.53782979 264.47070587 175.54284668 266.33105469 C175.54873545 270.22474623 175.54019884 274.11807004 175.52148438 278.01171875 C175.49869516 282.99523186 175.51182158 287.97788323 175.53577423 292.96136475 C175.55024903 296.80133522 175.54561851 300.6411024 175.53526306 304.4810791 C175.53260042 306.31823835 175.53584922 308.15541623 175.54518127 309.99255371 C175.55537473 312.56323934 175.53980771 315.13254201 175.51757812 317.703125 C175.52567505 318.45758911 175.53377197 319.21205322 175.54211426 319.98937988 C175.45965804 325.1532005 174.35393153 328.08943922 171 332 C165.67258082 336.95040182 160.49191866 336.48037405 153.625 336.25 C152.60277344 336.23195313 151.58054687 336.21390625 150.52734375 336.1953125 C148.01725251 336.14839491 145.50912236 336.08276729 143 336 C143.0199855 337.71768837 143.0199855 337.71768837 143.04037476 339.47007751 C143.16222225 350.28351218 143.25205228 361.09680681 143.31087303 371.91077328 C143.34213073 377.46986025 143.38450254 383.0283912 143.45263672 388.5871582 C143.51802668 393.95588679 143.55374785 399.32408197 143.56926346 404.69317818 C143.58031453 406.73727371 143.60189506 408.7813414 143.63438034 410.82520866 C143.9295486 430.17294151 143.9295486 430.17294151 138.65811157 436.45387268 C138.11093475 436.9640947 137.56375793 437.47431671 137 438 C136.40295258 438.560858 135.80590515 439.121716 135.19076538 439.6995697 C126.66756267 446.78302864 117.68142254 448.59752786 106.84912109 448.45410156 C105.67723236 448.45468567 104.50534363 448.45526978 103.29794312 448.45587158 C99.45613127 448.45310316 95.61511244 448.42206838 91.7734375 448.390625 C89.09728686 448.38315819 86.42117914 448.37727039 83.74502563 448.37347412 C77.44118183 448.36109236 71.13761889 448.32833677 64.83389819 448.28807616 C57.65125511 448.24320788 50.4685979 448.22133377 43.28584933 448.20129442 C28.52375659 448.15959911 13.76188322 448.08934164 -1 448 C-0.9685791 449.67956787 -0.9685791 449.67956787 -0.93652344 451.39306641 C-0.86389574 455.56383377 -0.81811789 459.73454568 -0.78027344 463.90576172 C-0.76020967 465.70794081 -0.73295187 467.51005521 -0.69824219 469.31201172 C-0.64949171 471.90869136 -0.62697918 474.50450729 -0.609375 477.1015625 C-0.58872986 477.9017984 -0.56808472 478.7020343 -0.54681396 479.52651978 C-0.54470904 484.82385322 -1.39384455 487.867229 -5 492 C-10.41198356 496.68446767 -15.038143 496.56750171 -21.85546875 496.50793457 C-22.95075394 496.51417453 -24.04603912 496.5204145 -25.17451477 496.52684355 C-28.84572862 496.54280207 -32.51628118 496.53015743 -36.1875 496.51757812 C-38.81901436 496.52299794 -41.45052569 496.5301198 -44.08203125 496.53881836 C-50.48817538 496.55659815 -56.89413197 496.55276609 -63.30028343 496.5411678 C-68.50700799 496.53213159 -73.71368001 496.53091028 -78.92041016 496.53526306 C-79.66166169 496.53587599 -80.40291323 496.53648893 -81.16662693 496.53712043 C-82.67249935 496.53839934 -84.17837176 496.5396962 -85.68424416 496.5410108 C-99.80243328 496.55241501 -113.92051849 496.53930542 -128.03869057 496.51780933 C-140.15084575 496.49993847 -152.26284758 496.50304262 -164.375 496.52148438 C-178.44291203 496.54289393 -192.51073301 496.55131638 -206.57865906 496.53903532 C-208.07896931 496.53776113 -209.57927957 496.53650365 -211.07958984 496.53526306 C-212.18684087 496.53433741 -212.18684087 496.53433741 -213.31646061 496.53339306 C-218.51649729 496.5299404 -223.71647618 496.53576666 -228.91650391 496.54518127 C-235.91628611 496.55757584 -242.91577373 496.54874225 -249.91552734 496.52560425 C-252.48664874 496.52030882 -255.05779449 496.52184508 -257.62890625 496.53065491 C-261.13444564 496.54156035 -264.63905158 496.52790568 -268.14453125 496.50793457 C-269.67633781 496.5213189 -269.67633781 496.5213189 -271.23908997 496.53497362 C-277.00789483 496.47108045 -280.46189027 495.92806594 -285 492 C-289.27569724 487.0999124 -289.55050571 483.29877292 -289.390625 477.1015625 C-289.38496521 476.26660248 -289.37930542 475.43164246 -289.37347412 474.57138062 C-289.35120223 471.92198734 -289.30102523 469.27397984 -289.25 466.625 C-289.22992302 464.82163421 -289.21167435 463.01824708 -289.1953125 461.21484375 C-289.15136786 456.80936731 -289.08240601 452.40491806 -289 448 C-290.26384521 448.01369629 -291.52769043 448.02739258 -292.82983398 448.04150391 C-300.37917396 448.12331609 -306.99948055 444.81121628 -312.46875 439.703125 C-318.05302241 433.4920465 -321.24532603 426.56495459 -321.25726891 418.14150047 C-321.2637178 416.98743403 -321.27016669 415.83336758 -321.276811 414.64432943 C-321.2737138 413.38597898 -321.2706166 412.12762852 -321.26742554 410.83114624 C-321.27116381 409.47333353 -321.27576605 408.11552298 -321.28115618 406.75771582 C-321.29338013 403.03189517 -321.29312642 399.30616435 -321.29076743 395.58032823 C-321.2903591 391.55970265 -321.3014001 387.53910582 -321.31088257 383.51849365 C-321.32749122 375.64251998 -321.33299209 367.76657625 -321.33410732 359.89058654 C-321.33505805 353.48636555 -321.33916959 347.08215442 -321.34550858 340.67793655 C-321.36312216 322.51278402 -321.37234749 304.34765511 -321.37084763 286.18249397 C-321.37076772 285.20333053 -321.3706878 284.22416709 -321.37060547 283.21533203 C-321.37052371 282.23496989 -321.37044195 281.25460775 -321.37035771 280.24453767 C-321.36954522 264.3647296 -321.38867326 248.48501648 -321.4168822 232.60523586 C-321.44563168 216.29212219 -321.4594213 199.97905478 -321.45769465 183.66591513 C-321.45703137 174.51057719 -321.4624964 165.35533874 -321.48405075 156.20002365 C-321.50228992 148.40294037 -321.50658762 140.60600165 -321.4930319 132.80890624 C-321.48651545 128.83370365 -321.48633674 124.85877814 -321.5037384 120.88360214 C-321.51953377 117.23771149 -321.51654044 113.59231612 -321.49917014 109.94643708 C-321.49467712 108.01698676 -321.50970693 106.08752068 -321.52564943 104.158131 C-321.41154439 89.64670872 -316.49073942 78.81622739 -306.6875 68.25 C-297.55963446 59.61112725 -286.7796194 55.58191615 -274.30717468 55.78544617 C-272.70939934 55.83473015 -272.70939934 55.83473015 -271.0793457 55.88500977 C-268.69111124 55.93048921 -266.30287142 55.9756876 -263.91462708 56.02064514 C-262.65708933 56.04977556 -261.39955158 56.07890598 -260.10390663 56.10891914 C-256.09308396 56.19314282 -252.08329263 56.24439865 -248.07182312 56.28074646 C-247.386709 56.28710115 -246.70159488 56.29345585 -245.99571973 56.30000311 C-244.59398073 56.31284525 -243.1922405 56.3255528 -241.79049909 56.33812892 C-232.47850316 56.42253822 -223.16945778 56.52763237 -213.86010742 56.77124023 C-174.52863691 57.77250686 -143.47739898 53.35665408 -106.77560425 37.45773315 C-99.56987819 34.35059873 -92.22506785 31.71017812 -84.8137455 29.14204407 C-81.55929463 28.00956849 -78.31904222 26.83799047 -75.07714844 25.67016602 C-72.59313763 24.78000275 -70.10908764 23.88994883 -67.625 23 C-62.24701394 21.07267884 -56.86939149 19.14434581 -51.4921875 17.21484375 C-50.85243484 16.98532454 -50.21268219 16.75580532 -49.55354309 16.51933098 C-41.61060706 13.66880182 -33.67692724 10.7949562 -25.7578125 7.87890625 C-24.95401154 7.58349945 -24.15021057 7.28809265 -23.322052 6.98373413 C-19.82036412 5.69616715 -16.3211458 4.40269096 -12.82666016 3.09570312 C-11.68245605 2.67353516 -10.53825195 2.25136719 -9.359375 1.81640625 C-7.92803223 1.28188843 -7.92803223 1.28188843 -6.46777344 0.73657227 C-4 0 -4 0 0 0 Z " fill="#FDBC54" transform="translate(329,8)"/>
<path d="M0 0 C1.23041016 -0.00043808 2.46082031 -0.00087616 3.72851562 -0.00132751 C7.0710156 0.00039278 10.41294562 0.01533928 13.75534487 0.03639436 C17.26000539 0.05526895 20.76467515 0.05692003 24.26937866 0.06047058 C30.89190356 0.06975962 37.51427821 0.09433034 44.13673723 0.12451905 C51.68214891 0.15816147 59.22756812 0.17457369 66.77303624 0.18960536 C82.2815575 0.22088311 97.78992922 0.27358176 113.29833984 0.34057617 C110.4468793 2.24154987 108.08788279 3.24810894 104.88183594 4.39672852 C103.76615738 4.79871964 102.65047882 5.20071075 101.50099182 5.61488342 C99.67978065 6.2641404 99.67978065 6.2641404 97.82177734 6.92651367 C96.54783515 7.38398233 95.27402889 7.84182969 94.00035095 8.30003357 C90.59644468 9.52353474 87.19083343 10.742222 83.78488541 11.96002579 C80.26643974 13.21899127 76.74957017 14.4823415 73.23266602 15.74560547 C71.83256861 16.24846806 70.43246791 16.75132148 69.03236389 17.25416565 C68.34368792 17.50150515 67.65501194 17.74884464 66.945467 18.00367928 C64.86841462 18.74941529 62.79116163 19.49458989 60.71385193 20.23960876 C51.31036027 23.61275717 41.9182017 27.01582516 32.53631592 30.4486084 C21.16255178 34.60989111 9.75501292 38.65856505 -1.7043457 42.578125 C-3.18028198 43.08315552 -3.18028198 43.08315552 -4.68603516 43.59838867 C-5.96559082 44.03368896 -5.96559082 44.03368896 -7.27099609 44.4777832 C-8.97592082 45.08296641 -10.66099237 45.74567908 -12.32763672 46.44946289 C-14.70166016 47.34057617 -14.70166016 47.34057617 -17.70166016 47.34057617 C-13.56292644 59.68048728 -8.61688749 69.21914968 3.29833984 75.34057617 C6.59833984 76.66057617 9.89833984 77.98057617 13.29833984 79.34057617 C13.29833984 135.11057617 13.29833984 190.88057617 13.29833984 248.34057617 C39.61455078 248.28836914 39.61455078 248.28836914 66.46240234 248.23510742 C77.55485158 248.21978489 88.64729317 248.2052195 99.73974609 248.1940918 C105.56542994 248.18821815 111.39111355 248.1821567 117.21679688 248.17578125 C118.31203334 248.17459438 118.31203334 248.17459438 119.42939579 248.17338353 C131.21826804 248.1603345 143.0070964 248.13668244 154.79594262 248.10911778 C166.89388161 248.08106626 178.99179763 248.06440045 191.08976781 248.05831069 C198.55527546 248.05419371 206.02065913 248.04118914 213.48612861 248.01682677 C219.21001877 247.99909892 224.93382942 247.99720992 230.65774155 248.00125313 C233.00633762 248.00042665 235.35493832 247.99444411 237.70350647 247.98295975 C240.90705433 247.96806076 244.11006927 247.97161343 247.31362915 247.97981262 C248.24554349 247.9710741 249.17745782 247.96233557 250.13761199 247.95333225 C255.99145474 247.99390083 260.47718539 248.70705195 264.94287109 252.87573242 C275.76517236 267.02797254 269.29833984 266.69198918 269.29833984 296.34057617 C174.25833984 296.34057617 79.21833984 296.34057617 -18.70166016 296.34057617 C-18.70166016 304.26057617 -18.70166016 312.18057617 -18.70166016 320.34057617 C76.33833984 320.34057617 171.37833984 320.34057617 269.29833984 320.34057617 C269.29833984 430.34057617 269.29833984 430.34057617 265.29833984 436.34057617 C260.04991312 441.12309167 255.18415565 440.90741347 248.44287109 440.84851074 C247.34758591 440.8547507 246.25230072 440.86099067 245.12382507 440.86741972 C241.45261122 440.88337824 237.78205866 440.8707336 234.11083984 440.8581543 C231.47932548 440.86357411 228.84781416 440.87069597 226.21630859 440.87939453 C219.81016446 440.89717432 213.40420787 440.89334226 206.99805641 440.88174397 C201.79133186 440.87270776 196.58465983 440.87148645 191.37792969 440.87583923 C190.63667815 440.87645217 189.89542662 440.8770651 189.13171291 440.8776966 C187.62584049 440.87897551 186.11996808 440.88027237 184.61409569 440.88158697 C170.49590656 440.89299118 156.37782136 440.87988159 142.25964928 440.8583855 C130.14749409 440.84051464 118.03549226 440.84361879 105.92333984 440.86206055 C91.85542781 440.8834701 77.78760684 440.89189256 63.71968079 440.87961149 C62.21937054 440.87833731 60.71906028 440.87707982 59.21875 440.87583923 C58.11149897 440.87491358 58.11149897 440.87491358 56.98187923 440.87396923 C51.78184255 440.87051657 46.58186367 440.87634283 41.38183594 440.88575745 C34.38205374 440.89815202 27.38256612 440.88931842 20.3828125 440.86618042 C17.8116911 440.86088499 15.24054535 440.86242125 12.66943359 440.87123108 C9.1638942 440.88213652 5.65928826 440.86848185 2.15380859 440.84851074 C0.62200203 440.86189507 0.62200203 440.86189507 -0.94075012 440.87554979 C-6.70955499 440.81165662 -10.16355043 440.26864211 -14.70166016 436.34057617 C-18.9773574 431.44048857 -19.25216587 427.63934909 -19.09228516 421.44213867 C-19.08662537 420.60717865 -19.08096558 419.77221863 -19.07513428 418.91195679 C-19.05286239 416.26256352 -19.00268539 413.61455602 -18.95166016 410.96557617 C-18.93158318 409.16221038 -18.91333451 407.35882325 -18.89697266 405.55541992 C-18.85302801 401.14994348 -18.78406616 396.74549424 -18.70166016 392.34057617 C-19.96550537 392.35427246 -21.22935059 392.36796875 -22.53149414 392.38208008 C-30.08083411 392.46389227 -36.70114071 389.15179245 -42.17041016 384.04370117 C-47.75468257 377.83262267 -50.94698618 370.90553076 -50.95892906 362.48207664 C-50.96537795 361.3280102 -50.97182685 360.17394376 -50.97847116 358.9849056 C-50.97537396 357.72655515 -50.97227675 356.4682047 -50.96908569 355.17172241 C-50.97282397 353.8139097 -50.9774262 352.45609915 -50.98281634 351.09829199 C-50.99504029 347.37247134 -50.99478658 343.64674052 -50.99242759 339.9209044 C-50.99201926 335.90027882 -51.00306026 331.87968199 -51.01254272 327.85906982 C-51.02915138 319.98309616 -51.03465225 312.10715243 -51.03576748 304.23116271 C-51.03671821 297.82694172 -51.04082974 291.4227306 -51.04716873 285.01851273 C-51.06478232 266.85336019 -51.07400765 248.68823128 -51.07250778 230.52307014 C-51.07242787 229.5439067 -51.07234796 228.56474326 -51.07226562 227.5559082 C-51.07218386 226.57554606 -51.0721021 225.59518392 -51.07201786 224.58511384 C-51.07120537 208.70530577 -51.09033342 192.82559265 -51.11854236 176.94581203 C-51.14729184 160.63269836 -51.16108145 144.31963095 -51.15935481 128.0064913 C-51.15869152 118.85115337 -51.16415655 109.69591491 -51.18571091 100.54059982 C-51.20395007 92.74351655 -51.20824778 84.94657782 -51.19469206 77.14948241 C-51.18817561 73.17427982 -51.18799689 69.19935431 -51.20539856 65.22417831 C-51.22119392 61.57828766 -51.21820059 57.9328923 -51.2008303 54.28701325 C-51.19633728 52.35756293 -51.21136708 50.42809686 -51.22730958 48.49870718 C-51.11320455 33.98728489 -46.19239957 23.15680356 -36.38916016 12.59057617 C-25.87309911 2.63787554 -14.10113473 -0.13315273 0 0 Z " fill="#FB9E20" transform="translate(58.70166015625,63.659423828125)"/>
<path d="M0 0 C2.14132334 4.23328993 4.2774277 8.4691561 6.40869141 12.70751953 C7.13479257 14.14965065 7.86232665 15.59106122 8.59130859 17.03173828 C9.63754818 19.10001872 10.67864446 21.170817 11.71875 23.2421875 C12.21091003 24.21102371 12.21091003 24.21102371 12.7130127 25.19943237 C15 29.77225659 15 29.77225659 15 32 C21.04046113 29.86387401 27.0805816 27.72678779 33.1204834 25.58908081 C35.28615214 24.82277882 37.45192328 24.05676617 39.61779785 23.29104614 C51.55651251 19.07024454 63.48894603 14.83390156 75.3984375 10.53125 C77.33281693 9.83398773 79.26722385 9.13680172 81.20166016 8.43969727 C83.96403031 7.44412025 86.72552594 6.44641304 89.48455811 5.44161987 C92.02420813 4.51676326 94.56647394 3.599466 97.109375 2.68359375 C98.2280043 2.27234253 98.2280043 2.27234253 99.36923218 1.8527832 C102.81917068 0.61783532 105.28606252 0 109 0 C117.95620373 24.89292584 126.70375965 49.85956134 135.47558594 74.81787109 C138.71556908 84.03635375 141.95732814 93.25421121 145.20019531 102.47167969 C146.7683295 106.92898427 148.33527397 111.3867045 149.90136719 115.84472656 C153.5457824 126.21452141 157.20138912 136.58004451 160.89204407 146.93348694 C162.58738838 151.68982382 164.27854684 156.44764504 165.96969604 161.20547485 C166.77591761 163.46929975 167.58441858 165.73231428 168.39529419 167.99447632 C169.51256587 171.11156039 170.62228659 174.23123765 171.73046875 177.3515625 C172.06382233 178.27488876 172.3971759 179.19821503 172.7406311 180.14952087 C173.04044891 180.99817215 173.34026672 181.84682343 173.64916992 182.72119141 C173.9116301 183.45544342 174.17409027 184.18969543 174.44450378 184.94619751 C175 187 175 187 175 191 C147.19101124 202 147.19101124 202 143 202 C142.99857498 201.34124878 142.99714996 200.68249756 142.99568176 200.00378418 C142.97593976 193.12482483 142.92156882 186.24674745 142.84741211 179.36816406 C142.82426722 176.80377538 142.80984469 174.23929212 142.80444336 171.67480469 C142.79512884 167.98052259 142.75407853 164.2877211 142.70703125 160.59375 C142.71293022 158.8839093 142.71293022 158.8839093 142.71894836 157.13952637 C142.60958263 151.12359793 141.99723225 146.72028986 138.75248718 141.60021973 C134.24832404 137.4874075 129.02863132 136.62509949 123.12826252 136.6292057 C122.47038015 136.62555378 121.81249778 136.62190186 121.13467959 136.61813927 C118.93854284 136.6095621 116.7430606 136.62227533 114.54695129 136.63491821 C112.95316245 136.63305884 111.3593747 136.62986935 109.76559085 136.6254667 C105.39208822 136.61713817 101.01879557 136.62736533 96.64531219 136.64055538 C91.92600173 136.65146913 87.20671259 136.64499143 82.48739624 136.64042664 C74.31019246 136.63468086 66.13304796 136.63931049 57.9558506 136.65044022 C46.11994009 136.66609714 34.28410939 136.66052914 22.44819769 136.64882378 C3.22775296 136.62992799 -15.99268092 136.62071178 -35.21313477 136.62109375 C-36.36339645 136.62111119 -37.51365813 136.62112863 -38.69877622 136.6211466 C-51.52770172 136.62159868 -64.35662332 136.62492378 -77.18554688 136.63201904 C-78.33832956 136.63265143 -79.49111225 136.63328381 -80.67882775 136.63393535 C-81.83041967 136.63456792 -82.9820116 136.63520048 -84.16850024 136.63585222 C-86.49067008 136.63712198 -88.81283992 136.63838739 -91.13500977 136.63964844 C-92.28235315 136.64027663 -93.42969654 136.64090482 -94.61180791 136.64155205 C-113.75452364 136.65151172 -132.8971747 136.64216757 -152.03987676 136.61746442 C-163.8428023 136.60304004 -175.64550006 136.60508863 -187.44841246 136.62842642 C-195.53974953 136.64319032 -203.63095327 136.64000456 -211.72228505 136.6227975 C-216.38814226 136.613473 -221.05362913 136.61227278 -225.71945763 136.63302803 C-229.99636048 136.65190431 -234.27260524 136.64753459 -238.5494856 136.62520044 C-240.09120438 136.62118626 -241.63297398 136.62551265 -243.17463603 136.6393344 C-256.85270165 136.753896 -267.92152062 133.6176344 -278 124 C-283.20911177 118.40632294 -288 110.84220099 -288 103 C-284.11368346 101.55718294 -280.22563314 100.11915227 -276.33618164 98.68481445 C-275.02421841 98.20032664 -273.71266816 97.71471845 -272.40161133 97.2277832 C-264.28254185 94.21338613 -256.12781263 91.3520323 -247.90234375 88.640625 C-236.60571872 84.91252647 -225.42672057 80.88372827 -214.25 76.8125 C-212.19522249 76.06596184 -210.14037122 75.31962666 -208.08544922 74.57348633 C-203.98911416 73.08575935 -199.89332858 71.59653251 -195.79785156 70.10644531 C-190.51172142 68.18427578 -185.22136602 66.27401765 -179.9296875 64.3671875 C-177.69172968 63.55921161 -175.4539133 62.75084579 -173.21618652 61.94223022 C-171.84327468 61.44673255 -170.46999473 60.95225343 -169.09631348 60.45889282 C-167.21153862 59.78166015 -165.32839032 59.09990589 -163.4453125 58.41796875 C-162.40906738 58.04438232 -161.37282227 57.6707959 -160.30517578 57.28588867 C-157.72230701 56.28101574 -155.22326393 55.21382513 -152.70166016 54.07104492 C-147.9891508 51.95429006 -143.19424618 50.17402415 -138.328125 48.4453125 C-137.39707443 48.11132446 -136.46602386 47.77733643 -135.50675964 47.43322754 C-133.4846888 46.70831721 -131.46206001 45.98496167 -129.43893433 45.26300049 C-126.17833056 44.0994241 -122.91918693 42.93183912 -119.66040039 41.76318359 C-116.16009016 40.50799748 -112.65967819 39.25310163 -109.15882874 37.99942017 C-96.88809861 33.60506865 -84.62618589 29.1863824 -72.3657999 24.76326752 C-68.42609292 23.34199726 -64.48600637 21.92178637 -60.54557514 20.50252533 C-48.99879923 16.3433927 -37.45365516 12.1808658 -25.9375 7.9375 C-25.13852798 7.6437851 -24.33955597 7.35007019 -23.51637268 7.04745483 C-20.00131825 5.75516671 -16.48844644 4.45769787 -12.98022461 3.14697266 C-11.82014893 2.7194873 -10.66007324 2.29200195 -9.46484375 1.8515625 C-8.491521 1.48885254 -7.51819824 1.12614258 -6.51538086 0.75244141 C-4 0 -4 0 0 0 Z " fill="#2AA173" transform="translate(329,8)"/>
<path d="M0 0 C78.87 0 157.74 0 239 0 C239 86.432 239 86.432 234.53515625 91.7421875 C230.18602083 95.08767629 227.15714444 96.12126399 221.76106262 96.13371277 C220.92188797 96.13797775 220.08271332 96.14224274 219.21810913 96.14663696 C218.30542267 96.14618378 217.39273621 96.14573059 216.45239258 96.14526367 C215.48425125 96.14862228 214.51610992 96.1519809 213.51863098 96.15544128 C210.31058472 96.16495469 207.10259075 96.16689541 203.89453125 96.16796875 C201.65410847 96.17118397 199.41368589 96.17454824 197.17326355 96.17805481 C192.46649694 96.1840491 187.75974868 96.18589469 183.05297852 96.18530273 C177.06407965 96.18520176 171.07530107 96.19878522 165.08643055 96.21607494 C160.45085629 96.22728297 155.81531015 96.22921917 151.17972374 96.22869301 C148.97485634 96.22986255 146.76998796 96.23422572 144.56513405 96.24202538 C128.34585508 96.29397329 112.22666376 96.11502873 96.5625 91.375 C95.68762939 91.11557617 94.81275879 90.85615234 93.91137695 90.58886719 C74.71437379 84.68102895 57.19399413 75.17158535 42 62 C41.18273437 61.30390625 40.36546875 60.6078125 39.5234375 59.890625 C22.8534776 45.33666621 6.33229566 24.74235783 0 3 C0 2.01 0 1.02 0 0 Z " fill="#FE6060" transform="translate(89,384)"/>
<path d="M0 0 C16.17 0 32.34 0 49 0 C51.31 5.61 53.62 11.22 56 17 C57.48845603 19.96968654 58.91551717 22.74767389 60.625 25.5625 C61.03613037 26.24957031 61.44726074 26.93664062 61.87084961 27.64453125 C66.83099991 35.68494498 72.76763739 42.92088283 79 50 C79.73605469 50.83917969 80.47210938 51.67835938 81.23046875 52.54296875 C98.85209577 71.25529609 122.4565388 83.59971122 146.875 90.75 C147.53306641 90.94891846 148.19113281 91.14783691 148.86914062 91.3527832 C164.41262171 95.64565695 180.75016697 95.31244337 196.7265625 95.30078125 C198.97236204 95.30467788 201.21816085 95.3090145 203.46395874 95.31376648 C208.13501394 95.32117134 212.80599344 95.32097638 217.47705078 95.31567383 C223.45429996 95.30984167 229.43124304 95.32692785 235.40844154 95.3500185 C240.03072917 95.36475008 244.65294255 95.36562908 249.27524948 95.36250877 C251.48001087 95.36302079 253.68477654 95.36823599 255.88951492 95.37832069 C258.96381995 95.39067657 262.03752086 95.38390176 265.11181641 95.37231445 C266.01371704 95.37995819 266.91561768 95.38760193 267.84484863 95.39547729 C273.32200996 95.34991986 277.15301801 94.60896786 282 92 C284.65178443 89.20487587 286.3294896 86.43585328 288 83 C288.11651725 87.37477474 288.18736 91.74914827 288.25 96.125 C288.28351563 97.3625 288.31703125 98.6 288.3515625 99.875 C288.4497707 109.00836269 288.4497707 109.00836269 286.359375 113.6171875 C281.06007578 118.96912876 277.71005288 120.45222797 270.23908997 120.53497362 C269.21788559 120.52605073 268.19668121 120.51712785 267.14453125 120.50793457 C266.04924606 120.51417453 264.95396088 120.5204145 263.82548523 120.52684355 C260.15427138 120.54280207 256.48371882 120.53015743 252.8125 120.51757812 C250.18098564 120.52299794 247.54947431 120.5301198 244.91796875 120.53881836 C238.51182462 120.55659815 232.10586803 120.55276609 225.69971657 120.5411678 C220.49299201 120.53213159 215.28631999 120.53091028 210.07958984 120.53526306 C209.33833831 120.53587599 208.59708677 120.53648893 207.83337307 120.53712043 C206.32750065 120.53839934 204.82162824 120.5396962 203.31575584 120.5410108 C189.19756672 120.55241501 175.07948151 120.53930542 160.96130943 120.51780933 C148.84915425 120.49993847 136.73715242 120.50304262 124.625 120.52148438 C110.55708797 120.54289393 96.48926699 120.55131638 82.42134094 120.53903532 C80.92103069 120.53776113 79.42072043 120.53650365 77.92041016 120.53526306 C76.81315913 120.53433741 76.81315913 120.53433741 75.68353939 120.53339306 C70.48350271 120.5299404 65.28352382 120.53576666 60.08349609 120.54518127 C53.08371389 120.55757584 46.08422627 120.54874225 39.08447266 120.52560425 C36.51335126 120.52030882 33.94220551 120.52184508 31.37109375 120.53065491 C27.86555436 120.54156035 24.36094842 120.52790568 20.85546875 120.50793457 C19.83426437 120.51685746 18.81306 120.52578034 17.76091003 120.53497362 C11.98889591 120.4710449 8.54592832 119.9217004 4 116 C-0.77322103 110.7595379 -0.55015954 105.94746985 -0.45410156 99.22119141 C-0.45468567 98.14742249 -0.45526978 97.07365356 -0.45587158 95.96734619 C-0.45309132 92.42841949 -0.42200057 88.89034155 -0.390625 85.3515625 C-0.38316244 82.89391541 -0.37746958 80.43626235 -0.37347412 77.97860718 C-0.35821914 71.5176341 -0.31893779 65.05702207 -0.2746582 58.59619141 C-0.22649927 50.84021973 -0.20817091 43.08412718 -0.18484497 35.32804871 C-0.14608747 23.55178155 -0.06943122 11.77630622 0 0 Z " fill="#E03E3E" transform="translate(40,384)"/>
<path d="M0 0 C1.38283408 -0.00576172 1.38283408 -0.00576172 2.7936042 -0.01163983 C3.8079833 -0.01077335 4.82236241 -0.00990687 5.86748028 -0.00901413 C7.48206183 -0.01347081 7.48206183 -0.01347081 9.1292612 -0.01801753 C12.75430419 -0.02672417 16.37931424 -0.02821444 20.00436687 -0.02970505 C22.59602714 -0.03433181 25.18768673 -0.03935627 27.77934551 -0.04475021 C34.83306305 -0.0583358 41.88677491 -0.06435858 48.94050336 -0.06876087 C53.34423045 -0.07152286 57.74795534 -0.07576013 62.15168095 -0.08026505 C74.34249547 -0.0924579 86.53330823 -0.10275725 98.72412872 -0.10614014 C99.50446336 -0.1063597 100.28479799 -0.10657927 101.08877913 -0.10680549 C101.87098835 -0.10702377 102.65319756 -0.10724204 103.45911008 -0.10746694 C105.04418266 -0.1079104 106.62925524 -0.10835697 108.21432781 -0.10880661 C109.00057974 -0.10902804 109.78683168 -0.10924947 110.59690943 -0.10947761 C123.33821538 -0.11342598 136.07946415 -0.13088111 148.82074801 -0.15416613 C161.89963776 -0.17787537 174.97849882 -0.19034179 188.05741042 -0.19150805 C195.40171274 -0.19242505 202.74594055 -0.19818341 210.09022236 -0.21632767 C216.99715238 -0.23333122 223.90393872 -0.23498447 230.81088352 -0.22618866 C233.34814743 -0.22541602 235.88541881 -0.22979063 238.42266369 -0.23964691 C241.88222262 -0.25229954 245.34127491 -0.24652562 248.80082989 -0.23606491 C250.3123603 -0.24814952 250.3123603 -0.24814952 251.85442668 -0.26047826 C257.90765623 -0.2175727 262.54114444 0.34636829 267.1691618 4.66658401 C277.99146306 18.81882413 271.52463055 18.48284077 271.52463055 48.13142776 C176.48463055 48.13142776 81.44463055 48.13142776 -16.47536945 48.13142776 C-16.47536945 12.13142776 -16.47536945 12.13142776 -12.47536945 5.13142776 C-8.45153609 1.40202123 -5.44655754 0.00851217 0 0 Z " fill="#CA3540" transform="translate(56.475369453430176,311.8685722351074)"/>
<path d="M0 0 C5.28 10.56 10.56 21.12 16 32 C11.50045611 35.37465792 11.50045611 35.37465792 8.26513672 36.47949219 C7.53832199 36.73180099 6.81150726 36.9841098 6.06266785 37.24406433 C5.27628433 37.50899185 4.48990082 37.77391937 3.6796875 38.046875 C2.84661575 38.33424026 2.01354401 38.62160553 1.15522766 38.91767883 C-0.65169359 39.54024689 -2.45971954 40.15961584 -4.26870728 40.77615356 C-9.19079166 42.45432692 -14.10439592 44.15707475 -19.01953125 45.85546875 C-20.03039291 46.20399399 -21.04125458 46.55251923 -22.08274841 46.91160583 C-31.68459092 50.22543176 -41.2517676 53.63221639 -50.8125 57.0625 C-54.2810101 58.30535788 -57.74982123 59.54737368 -61.21875 60.7890625 C-62.12759445 61.1144249 -63.0364389 61.43978729 -63.9728241 61.77500916 C-76.57163913 66.2820636 -89.18436716 70.7500452 -101.79558945 75.22223282 C-105.14284315 76.40928631 -108.48999732 77.59662038 -111.8371582 78.78393555 C-115.78940048 80.1858632 -119.7416483 81.58777521 -123.69392395 82.98960876 C-134.86275137 86.95109825 -146.03148863 90.91283865 -157.19833374 94.87991333 C-159.01725547 95.52595201 -160.83628027 96.17170059 -162.65542603 96.81710815 C-163.50108124 97.11714752 -164.34673645 97.41718689 -165.21801758 97.72631836 C-165.94322098 97.98352158 -166.66842438 98.24072479 -167.41560364 98.50572205 C-178.96519662 102.6160036 -190.47746693 106.80998797 -202 111 C-159.43 111.495 -159.43 111.495 -116 112 C-118.08048205 114.08048205 -119.15472853 114.56029422 -121.87280273 115.49291992 C-122.67221786 115.7704863 -123.471633 116.04805267 -124.29527283 116.33403015 C-125.60124168 116.77776726 -125.60124168 116.77776726 -126.93359375 117.23046875 C-127.84013199 117.54397781 -128.74667023 117.85748688 -129.68067932 118.18049622 C-132.59776112 119.18831979 -135.51745744 120.18829079 -138.4375 121.1875 C-141.28290421 122.16552442 -144.12768809 123.14523903 -146.97111511 124.1289978 C-148.88228574 124.7866953 -150.79619873 125.43647108 -152.71260071 126.07876587 C-157.01802627 127.53634289 -161.19409171 129.02423584 -165.2800293 131.02294922 C-181.25534025 138.55213676 -199.04592577 136.97330421 -216.29943848 136.77209473 C-219.8265979 136.74255348 -223.35299042 136.7578109 -226.88019466 136.77334213 C-230.3147331 136.78370154 -233.74882143 136.76913778 -237.18329048 136.74695587 C-238.80613765 136.73868678 -240.42903455 136.73703959 -242.05189323 136.74260712 C-256.08085067 136.76317943 -267.56224592 133.96048103 -278 124 C-283.20911177 118.40632294 -288 110.84220099 -288 103 C-284.11368346 101.55718294 -280.22563314 100.11915227 -276.33618164 98.68481445 C-275.02421841 98.20032664 -273.71266816 97.71471845 -272.40161133 97.2277832 C-264.28254185 94.21338613 -256.12781263 91.3520323 -247.90234375 88.640625 C-236.60571872 84.91252647 -225.42672057 80.88372827 -214.25 76.8125 C-212.19522249 76.06596184 -210.14037122 75.31962666 -208.08544922 74.57348633 C-203.98911416 73.08575935 -199.89332858 71.59653251 -195.79785156 70.10644531 C-190.51172142 68.18427578 -185.22136602 66.27401765 -179.9296875 64.3671875 C-177.69172968 63.55921161 -175.4539133 62.75084579 -173.21618652 61.94223022 C-171.84327468 61.44673255 -170.46999473 60.95225343 -169.09631348 60.45889282 C-167.21153862 59.78166015 -165.32839032 59.09990589 -163.4453125 58.41796875 C-162.40906738 58.04438232 -161.37282227 57.6707959 -160.30517578 57.28588867 C-157.72230701 56.28101574 -155.22326393 55.21382513 -152.70166016 54.07104492 C-147.9891508 51.95429006 -143.19424618 50.17402415 -138.328125 48.4453125 C-137.39707443 48.11132446 -136.46602386 47.77733643 -135.50675964 47.43322754 C-133.4846888 46.70831721 -131.46206001 45.98496167 -129.43893433 45.26300049 C-126.17833056 44.0994241 -122.91918693 42.93183912 -119.66040039 41.76318359 C-116.16009016 40.50799748 -112.65967819 39.25310163 -109.15882874 37.99942017 C-96.88809861 33.60506865 -84.62618589 29.1863824 -72.3657999 24.76326752 C-68.42609292 23.34199726 -64.48600637 21.92178637 -60.54557514 20.50252533 C-48.99879923 16.3433927 -37.45365516 12.1808658 -25.9375 7.9375 C-25.13852798 7.6437851 -24.33955597 7.35007019 -23.51637268 7.04745483 C-20.00131825 5.75516671 -16.48844644 4.45769787 -12.98022461 3.14697266 C-11.82014893 2.7194873 -10.66007324 2.29200195 -9.46484375 1.8515625 C-8.491521 1.48885254 -7.51819824 1.12614258 -6.51538086 0.75244141 C-4 0 -4 0 0 0 Z " fill="#2AA173" transform="translate(329,8)"/>
<path d="M0 0 C7.01287065 19.49161435 13.89092756 39.03013714 20.75543213 58.57440186 C26.56271431 75.12155534 26.56271431 75.12155534 32.44921875 91.640625 C32.69354645 92.32096802 32.93787415 93.00131104 33.18960571 93.70227051 C34.2580621 96.67446862 35.33106748 99.64492524 36.41015625 102.61328125 C36.76335937 103.59167969 37.1165625 104.57007812 37.48046875 105.578125 C37.77848389 106.39700195 38.07649902 107.21587891 38.38354492 108.05957031 C39 110 39 110 39 112 C24.81 112 10.62 112 -4 112 C-6.145 105.956875 -8.29 99.91375 -10.5 93.6875 C-11.17869141 91.78315186 -11.85738281 89.87880371 -12.55664062 87.91674805 C-13.09021664 86.40687 -13.62344368 84.89686857 -14.15625 83.38671875 C-14.57729004 82.21139587 -14.57729004 82.21139587 -15.00683594 81.0123291 C-16.10348132 77.89261401 -17 75.33264832 -17 72 C-18.485 72.495 -18.485 72.495 -20 73 C-30.56894617 73.96749333 -39.07051972 73.42868215 -48 67 C-52.1064832 63.29766981 -55.47560719 59.42006331 -57 54 C-64.63399803 56.20217648 -72.13029538 58.72542459 -79.625 61.359375 C-80.82809311 61.7803244 -82.03118622 62.2012738 -83.27073669 62.63497925 C-86.50986568 63.76858864 -89.74793909 64.90518317 -92.98572922 66.04261017 C-95.01607823 66.7556465 -97.04670567 67.46788423 -99.0774231 68.17987061 C-113.9017492 73.37770721 -128.7254241 78.57810163 -143.51513672 83.8737793 C-146.83323207 85.06032875 -150.15917349 86.22003557 -153.49267578 87.36254883 C-161.60100848 90.16812481 -169.48027902 93.14641041 -177.24841309 96.80238342 C-221.26200315 117.36601412 -266.48675394 113.93707511 -314 112 C-311.20063952 110.13375968 -308.95598335 109.16261663 -305.80908203 108.05493164 C-304.73699493 107.67520203 -303.66490784 107.29547241 -302.56033325 106.90423584 C-301.3880014 106.49368958 -300.21566956 106.08314331 -299.0078125 105.66015625 C-297.1251882 104.99495914 -295.24256458 104.3297601 -293.35996819 103.66448402 C-291.34387023 102.95289402 -289.32707147 102.2433245 -287.31005859 101.53433228 C-280.92923763 99.29126183 -274.55280073 97.03577521 -268.17583466 94.78177452 C-265.9969265 94.01177804 -263.81783983 93.24228837 -261.63873291 92.47285461 C-249.48102058 88.17850057 -237.34245626 83.83179554 -225.20980835 79.46713257 C-206.26977382 72.65402152 -187.30389815 65.91858617 -168.3125 59.25 C-144.90909175 51.03203419 -144.90909175 51.03203419 -121.52670288 42.7545166 C-119.80668542 42.14348095 -118.08619285 41.5337804 -116.36514282 40.92565918 C-107.79402352 37.89589629 -99.30255594 34.74729315 -90.88671875 31.30859375 C-77.15375338 25.72215562 -63.12245663 20.92855684 -49.13635254 16.02191162 C-44.7293684 14.47483094 -40.32441459 12.92198055 -35.91920567 11.36985397 C-32.49451168 10.16329277 -29.06953762 8.95755325 -25.64353943 7.75469971 C-24.40757523 7.32034607 -23.17161102 6.88599243 -21.89819336 6.43847656 C-20.14356277 5.82317078 -20.14356277 5.82317078 -18.35348511 5.19543457 C-14.30794008 3.75329774 -10.29144764 2.23884818 -6.28395081 0.6942749 C-4 0 -4 0 0 0 Z " fill="#35CD93" transform="translate(438,8)"/>
<path d="M0 0 C5.259375 -0.12375 5.259375 -0.12375 10.625 -0.25 C11.71893066 -0.28641602 12.81286133 -0.32283203 13.93994141 -0.36035156 C19.79173126 -0.42691017 23.51877487 -0.16409228 28 4 C31.80391406 8.70297338 32.58081198 12.40480147 32.51757812 18.296875 C32.5245874 19.10741333 32.53159668 19.91795166 32.53881836 20.75305176 C32.55635204 23.41905482 32.54479247 26.08398708 32.53125 28.75 C32.53394625 30.61035362 32.53782979 32.47070587 32.54284668 34.33105469 C32.54873545 38.22474623 32.54019884 42.11807004 32.52148438 46.01171875 C32.49869516 50.99523186 32.51182158 55.97788323 32.53577423 60.96136475 C32.55024903 64.80133522 32.54561851 68.6411024 32.53526306 72.4810791 C32.53260042 74.31823835 32.53584922 76.15541623 32.54518127 77.99255371 C32.55537473 80.56323934 32.53980771 83.13254201 32.51757812 85.703125 C32.52567505 86.45758911 32.53377197 87.21205322 32.54211426 87.98937988 C32.45965804 93.1532005 31.35393153 96.08943922 28 100 C22.61958044 105.01696686 17.17669933 104.56235728 10.21484375 104.50170898 C8.44308273 104.50981346 8.44308273 104.50981346 6.63552856 104.51808167 C3.40807326 104.52842263 0.18128781 104.52089359 -3.0461235 104.50437045 C-6.4305738 104.49047816 -9.81499434 104.49698477 -13.19946289 104.50050354 C-18.88208602 104.50320238 -24.56449754 104.48975835 -30.24707031 104.46655273 C-36.80801223 104.43994487 -43.36860044 104.43819702 -49.92957783 104.4499411 C-56.25248533 104.46073697 -62.57526544 104.45451768 -68.89816284 104.44038582 C-71.58384224 104.43464164 -74.26942793 104.43469628 -76.95510864 104.43945122 C-80.70857049 104.44236189 -84.46145487 104.42586192 -88.21484375 104.40405273 C-89.32463593 104.40855438 -90.4344281 104.41305603 -91.57785034 104.41769409 C-97.91576343 104.35651636 -102.74783096 103.96634896 -107.64453125 99.5 C-111.13367716 95.01895642 -112.1211924 92.1225558 -112.17700195 86.5222168 C-112.18983719 85.40062668 -112.20267242 84.27903656 -112.21589661 83.12345886 C-112.22328354 81.91095963 -112.23067047 80.69846039 -112.23828125 79.44921875 C-112.246353 78.20251907 -112.25442474 76.9558194 -112.26274109 75.67134094 C-112.27658108 73.03093754 -112.28759777 70.39065896 -112.29516602 67.75024414 C-112.30402761 65.04688998 -112.32490559 62.34404957 -112.35668945 59.64086914 C-112.39928762 55.74349417 -112.41552517 51.8467974 -112.42578125 47.94921875 C-112.44328934 46.74279221 -112.46079742 45.53636566 -112.47883606 44.29338074 C-112.46229927 37.90013128 -112.40089556 33.80806008 -108 29 C-104.2420237 25.68940183 -101.9240753 23.87354333 -96.92514038 23.87974548 C-96.07256149 23.87837082 -95.2199826 23.87699615 -94.34156799 23.87557983 C-93.40433395 23.87917511 -92.46709991 23.88277039 -91.50146484 23.88647461 C-90.51606216 23.88632858 -89.53065948 23.88618256 -88.51539612 23.8860321 C-85.24722111 23.88673067 -81.97910259 23.89452045 -78.7109375 23.90234375 C-76.44935131 23.90420813 -74.18776472 23.90563194 -71.92617798 23.90663147 C-65.96507661 23.91045507 -60.00399949 23.92028404 -54.04290771 23.93133545 C-47.96350431 23.94155293 -41.88409701 23.94612981 -35.8046875 23.95117188 C-23.86977928 23.96190643 -11.93489545 23.97950198 0 24 C0 16.08 0 8.16 0 0 Z " fill="#CB3540" transform="translate(472,240)"/>
<path d="M0 0 C95.04 0 190.08 0 288 0 C288 7.92 288 15.84 288 24 C192.96 24 97.92 24 0 24 C0 16.08 0 8.16 0 0 Z " fill="#ECF3F9" transform="translate(40,360)"/>
<path d="M0 0 C1.01847486 1.99065541 2.01517978 3.99248185 3 6 C7.01052959 12.20985227 12.81876473 16.12282524 20 18 C23.3198057 18.2983944 26.60008565 18.25036092 29.9296875 18.1640625 C30.80488037 18.15221924 31.68007324 18.14037598 32.58178711 18.12817383 C34.72139817 18.09750364 36.86076352 18.05043229 39 18 C40.85739285 23.21232768 42.70864006 28.42678107 44.55419922 33.64331055 C45.18304247 35.41799904 45.81356779 37.19209244 46.44580078 38.96557617 C47.35370549 41.51326794 48.25556074 44.06303109 49.15625 46.61328125 C49.44060913 47.40712723 49.72496826 48.20097321 50.01794434 49.01887512 C51.11077417 52.12828553 52 54.67853679 52 58 C-19.94 58 -91.88 58 -166 58 C-162.70756998 55.80504665 -159.39921677 54.59556797 -155.69921875 53.296875 C-154.94125 53.02709839 -154.18328125 52.75732178 -153.40234375 52.47937012 C-150.83209637 51.56567836 -148.25978948 50.65792531 -145.6875 49.75 C-143.83100032 49.09120272 -141.97464049 48.43201125 -140.1184082 47.77246094 C-134.89371825 45.91720918 -129.66721569 44.06711037 -124.44042969 42.21777344 C-115.15784801 38.93211367 -105.8780803 35.63850204 -96.59778023 32.34640408 C-93.31088096 31.18042694 -90.02390326 30.01467182 -86.73675537 28.84939575 C-65.12672749 21.18865577 -43.53570743 13.47628918 -21.95776367 5.72558594 C-20.89814423 5.34503555 -19.83852478 4.96448517 -18.74679565 4.57240295 C-16.7769539 3.86480286 -14.80723957 3.15684788 -12.837677 2.44847107 C-11.97447845 2.13829544 -11.11127991 1.82811981 -10.22192383 1.50854492 C-9.47405106 1.23958908 -8.72617828 0.97063324 -7.9556427 0.69352722 C-3.09286325 -1.03095442 -3.09286325 -1.03095442 0 0 Z " fill="#2FB380" transform="translate(382,62)"/>
<path d="M0 0 C14.92436975 0 14.92436975 0 19.4296875 4.39453125 C23.28979745 8.70171609 24.1117511 11.98346027 24.15771484 17.59399414 C24.16797699 18.49916275 24.17823914 19.40433136 24.18881226 20.33692932 C24.19611359 21.30984421 24.20341492 22.28275909 24.2109375 23.28515625 C24.23902428 25.36393992 24.26768884 27.44271585 24.296875 29.52148438 C24.33796642 32.78409455 24.37487058 36.04656307 24.40136719 39.30932617 C24.42921804 42.46823727 24.47510499 45.62650051 24.5234375 48.78515625 C24.52669037 49.74390152 24.52994324 50.70264679 24.53329468 51.69044495 C24.73032005 62.71805658 27.0158498 72.09537321 35 80 C41.59839198 85.20992726 48.09670201 87.24152472 56.51489258 87.29052734 C57.24258347 87.29724457 57.97027435 87.30396179 58.72001648 87.31088257 C61.11159201 87.32978805 63.50288576 87.33378305 65.89453125 87.3359375 C67.56833509 87.34237097 69.24213781 87.34909974 70.91593933 87.35610962 C74.42030441 87.36806402 77.92457106 87.37179238 81.42895508 87.37060547 C85.9009599 87.37040247 90.3723279 87.397693 94.84418201 87.43214989 C98.30078482 87.45448032 101.7572359 87.45844113 105.21390343 87.45738602 C106.86160156 87.45973318 108.50930444 87.46850644 110.15693092 87.48405075 C119.92531045 87.56757736 128.45513149 87.57289657 136.33984375 81.0703125 C139.51875686 77.19965546 141.87352856 74.00653975 143 69 C143.33 69 143.66 69 144 69 C144.14964803 73.3923615 144.25781326 77.78332766 144.32958984 82.17749023 C144.35954481 83.66831342 144.40032569 85.15896368 144.45263672 86.64916992 C144.73094245 94.78824818 144.95513091 101.57483301 139.66552734 108.29003906 C132.72857731 115.41205578 124.30877086 120.0607118 114.24179077 120.48101807 C112.110913 120.49251365 109.97984353 120.48228172 107.84912109 120.45410156 C106.65845346 120.4545837 105.46778584 120.45506584 104.24103737 120.45556259 C100.41819123 120.45259654 96.59614257 120.42222591 92.7734375 120.390625 C90.40080134 120.38473782 88.02815998 120.38066083 85.65551758 120.37841797 C76.8952654 120.35751651 68.13512472 120.30167136 59.375 120.25 C39.78125 120.1675 20.1875 120.085 0 120 C0 80.4 0 40.8 0 0 Z " fill="#FC9E20" transform="translate(328,336)"/>
<path d="M0 0 C2.97 6.27 5.94 12.54 9 19 C-4.28695846 24.25722762 -17.67176967 29.15640957 -31.1394043 33.92959595 C-37.34925877 36.1311716 -43.55565438 38.34245585 -49.76171875 40.5546875 C-50.39856472 40.78163363 -51.03541069 41.00857975 -51.69155502 41.24240303 C-65.14941236 46.03956772 -78.57763419 50.91700336 -92 55.8125 C-114.7776185 64.11705904 -137.58123282 72.34713104 -160.40454102 80.52514648 C-163.06922849 81.48015175 -165.73385267 82.4353334 -168.3984375 83.390625 C-169.37941438 83.74226054 -169.37941438 83.74226054 -170.38020897 84.10099983 C-179.88285661 87.50839169 -189.37075303 90.95410929 -198.8515625 94.421875 C-202.29260356 95.67632 -205.73393424 96.92996671 -209.17538452 98.18328857 C-211.3237071 98.96811075 -213.47073957 99.75647485 -215.61636353 100.54864502 C-218.55227213 101.63247797 -221.49235873 102.70416039 -224.43359375 103.7734375 C-225.27745636 104.08891541 -226.12131897 104.40439331 -226.99075317 104.72943115 C-232.86756967 106.84728186 -239.24377736 108.85502713 -245.48828125 107.43359375 C-249.98427343 104.97860873 -252.63967629 102.72064742 -255 98 C-255.37277845 96.00697533 -255.71208184 94.00704117 -256 92 C-236.53120838 84.78761859 -217.04623858 77.62514799 -197.5 70.625 C-196.6799649 70.33117432 -195.85992981 70.03734863 -195.01504517 69.73461914 C-191.08284157 68.325719 -187.15040136 66.91748089 -183.21777344 65.50976562 C-182.14722717 65.12655151 -182.14722717 65.12655151 -181.05505371 64.7355957 C-179.13860134 64.04961162 -177.22213331 63.36367129 -175.30566406 62.67773438 C-172.24417505 61.58030417 -169.18428673 60.4785514 -166.125 59.375 C-165.30064453 59.08061035 -164.47628906 58.7862207 -163.62695312 58.48291016 C-159.96037301 57.15645262 -156.37935421 55.74474972 -152.83447266 54.11914062 C-148.07555304 51.99162147 -143.23832151 50.18968211 -138.328125 48.4453125 C-137.39707443 48.11132446 -136.46602386 47.77733643 -135.50675964 47.43322754 C-133.4846888 46.70831721 -131.46206001 45.98496167 -129.43893433 45.26300049 C-126.17833056 44.0994241 -122.91918693 42.93183912 -119.66040039 41.76318359 C-116.16009016 40.50799748 -112.65967819 39.25310163 -109.15882874 37.99942017 C-96.88809861 33.60506865 -84.62618589 29.1863824 -72.3657999 24.76326752 C-68.42609292 23.34199726 -64.48600637 21.92178637 -60.54557514 20.50252533 C-48.99879923 16.3433927 -37.45365516 12.1808658 -25.9375 7.9375 C-25.13852798 7.6437851 -24.33955597 7.35007019 -23.51637268 7.04745483 C-20.00131825 5.75516671 -16.48844644 4.45769787 -12.98022461 3.14697266 C-11.82014893 2.7194873 -10.66007324 2.29200195 -9.46484375 1.8515625 C-8.491521 1.48885254 -7.51819824 1.12614258 -6.51538086 0.75244141 C-4 0 -4 0 0 0 Z " fill="#2FB27F" transform="translate(329,8)"/>
<path d="M0 0 C5.38496399 -0.1949987 7.77499877 0.50978159 12 4 C15.61319638 8.53175992 16.50528722 11.5405095 16.53344727 17.30297852 C16.54637062 18.36026154 16.54637062 18.36026154 16.55955505 19.43890381 C16.58212973 21.75261886 16.57549415 24.06511462 16.56640625 26.37890625 C16.57164472 27.99503436 16.57792202 29.61115941 16.58518982 31.22727966 C16.59557752 34.60731438 16.59105491 37.98692765 16.57641602 41.36694336 C16.55920781 45.6938406 16.58275568 50.0194124 16.61790562 54.34616184 C16.63988369 57.68084983 16.63843766 61.01522062 16.6301403 64.34995842 C16.62932143 65.9451334 16.63617273 67.54033182 16.65091133 69.13543892 C16.66837189 71.36659055 16.65380842 73.59535945 16.63110352 75.82641602 C16.63014175 77.09405289 16.62917999 78.36168976 16.62818909 79.66773987 C15.80578933 84.03020011 14.62407419 85.4585969 11 88 C8.03124431 88.48480169 5.64213202 88.66611034 2.68066406 88.61523438 C1.8555835 88.62078339 1.03050293 88.6263324 0.18041992 88.63204956 C-2.54177316 88.6438401 -5.26229873 88.61956936 -7.984375 88.59375 C-9.88380864 88.59203801 -11.78324464 88.59210548 -13.68267822 88.59387207 C-17.66400766 88.59221892 -21.644774 88.5735283 -25.62597656 88.54199219 C-30.71114169 88.50242287 -35.7955658 88.49793459 -40.88085556 88.50545502 C-44.80502013 88.50853672 -48.72902043 88.49635984 -52.65314484 88.47932434 C-54.5268882 88.47232611 -56.40065019 88.46916592 -58.27440643 88.47001648 C-60.90430274 88.46820323 -63.53333974 88.44668912 -66.16308594 88.41992188 C-67.30901215 88.42431778 -67.30901215 88.42431778 -68.47808838 88.42880249 C-75.17818665 88.32445488 -82.15078873 87.19609917 -87.0625 82.3125 C-88.0215625 81.1678125 -88.0215625 81.1678125 -89 80 C-88.33613281 79.85304688 -87.67226563 79.70609375 -86.98828125 79.5546875 C-80.6785679 77.9519282 -77.55753406 76.50843984 -74 71 C-72.64406769 66.93220306 -72.46924415 63.25331741 -73 59 C-75.02403177 55.09651015 -77.13474307 52.14736496 -81 50 C-83.65361464 49.18860629 -86.28252985 48.5887852 -89 48 C-84.45075383 42.73993412 -79.80090253 40.32099634 -72.81463623 39.73098755 C-69.64137775 39.64280705 -66.47423536 39.60487064 -63.29981613 39.61987495 C-61.17171218 39.62907584 -59.04447238 39.61866299 -56.91641235 39.60325623 C-50.87234625 39.56339062 -44.82835556 39.56195664 -38.78417969 39.56420898 C-35.07244776 39.56426019 -31.36118807 39.54504777 -27.64958572 39.51487541 C-25.56102624 39.50410018 -23.47338639 39.51614504 -21.38485718 39.52870178 C-20.10978302 39.51866623 -18.83470886 39.50863068 -17.52099609 39.49829102 C-16.40373138 39.49845718 -15.28646667 39.49862335 -14.13534546 39.49879456 C-9.46568095 38.75590888 -6.32937556 36.46689717 -3.1875 33 C-0.86252805 29.08425777 -0.83174745 25.1900655 -0.68359375 20.703125 C-0.64169922 19.49785156 -0.59980469 18.29257812 -0.55664062 17.05078125 C-0.51732422 15.79652344 -0.47800781 14.54226562 -0.4375 13.25 C-0.39431641 11.98027344 -0.35113281 10.71054688 -0.30664062 9.40234375 C-0.20060278 6.26833635 -0.09853942 3.13425067 0 0 Z " fill="#DF3D3D" transform="translate(488,240)"/>
<path d="M0 0 C1.3920742 -0.00043808 1.3920742 -0.00043808 2.81227112 -0.00088501 C5.84223182 0.00049463 8.87193838 0.01599077 11.90185547 0.03173828 C14.01748521 0.03547328 16.13311669 0.03831795 18.24874878 0.04031372 C23.78890852 0.04791187 29.32896166 0.06752722 34.86907959 0.08972168 C40.53363605 0.11026275 46.19820991 0.11933304 51.86279297 0.12939453 C62.95658954 0.15077699 74.05030735 0.18486637 85.14404297 0.22705078 C82.29258242 2.12802448 79.93358591 3.13458355 76.72753906 4.28320312 C75.6118605 4.68519424 74.49618195 5.08718536 73.34669495 5.50135803 C72.13255417 5.93419601 70.91841339 6.367034 69.66748047 6.81298828 C68.39353827 7.27045694 67.11973202 7.7283043 65.84605408 8.18650818 C62.44214781 9.41000935 59.03653656 10.62869661 55.63058853 11.8465004 C52.11214287 13.10546588 48.5952733 14.36881611 45.07836914 15.63208008 C43.67827174 16.13494267 42.27817104 16.63779609 40.87806702 17.14064026 C40.18939104 17.38797976 39.50071507 17.63531925 38.79117012 17.89015388 C36.71411775 18.6358899 34.63686476 19.3810645 32.55955505 20.12608337 C23.1560634 23.49923178 13.76390483 26.90229977 4.38201904 30.33508301 C-6.99174509 34.49636572 -18.39928396 38.54503966 -29.85864258 42.46459961 C-30.8426001 42.80128662 -31.82655762 43.13797363 -32.84033203 43.48486328 C-33.69336914 43.77506348 -34.54640625 44.06526367 -35.42529297 44.36425781 C-37.13021769 44.96944102 -38.81528925 45.63215369 -40.48193359 46.3359375 C-42.85595703 47.22705078 -42.85595703 47.22705078 -45.85595703 47.22705078 C-48.36608613 42.20679259 -47.13853358 35.4599236 -45.73095703 30.22705078 C-41.59170682 17.9060116 -34.18046325 9.74228014 -22.99267578 3.48876953 C-15.55940003 0.49879684 -7.93663924 -0.06695331 0 0 Z " fill="#BC6F08" transform="translate(86.85595703125,63.77294921875)"/>
<path d="M0 0 C13.86 0 27.72 0 42 0 C45.34592146 8.0302115 48.4823813 15.95000138 51.28515625 24.16015625 C51.85960732 25.82684608 51.85960732 25.82684608 52.44566345 27.52720642 C53.65490373 31.03773542 54.85893381 34.55002212 56.0625 38.0625 C57.27066236 41.5781872 58.47993081 45.09349052 59.69004822 48.60850525 C60.43828549 50.78297459 61.18525107 52.95788214 61.93067932 55.13331604 C62.27461227 56.134832 62.61854523 57.13634796 62.97290039 58.16821289 C63.30460236 59.13445587 63.63630432 60.10069885 63.97805786 61.09622192 C65.33987222 64.96572347 66.79572513 68.7983797 68.27098083 72.6259613 C69 75 69 75 69 79 C41.19101124 90 41.19101124 90 37 90 C36.99857498 89.34124878 36.99714996 88.68249756 36.99568176 88.00378418 C36.97593976 81.12482483 36.92156882 74.24674745 36.84741211 67.36816406 C36.82426722 64.80377538 36.80984469 62.23929212 36.80444336 59.67480469 C36.79512884 55.98052259 36.75407853 52.2877211 36.70703125 48.59375 C36.7109639 47.4538562 36.71489655 46.3139624 36.71894836 45.13952637 C36.59468761 38.30426139 35.77509156 33.14844378 31 28 C25.96044356 24.99783855 21.28063734 24.49560595 15.5625 24.3125 C14.83095703 24.27833984 14.09941406 24.24417969 13.34570312 24.20898438 C11.56430438 24.12748247 9.78218251 24.06204477 8 24 C0 5.02766798 0 5.02766798 0 0 Z " fill="#2FB380" transform="translate(435,120)"/>
<path d="M0 0 C0.85766779 0.24260512 0.85766779 0.24260512 1.7326622 0.49011135 C3.99248099 0.99830909 5.9652384 1.13788526 8.27740479 1.15821838 C9.12431885 1.1680072 9.97123291 1.17779602 10.84381104 1.18788147 C11.76450378 1.19363693 12.68519653 1.1993924 13.63378906 1.20532227 C14.60973022 1.21522186 15.58567139 1.22512146 16.59118652 1.23532104 C19.8159747 1.2669003 23.0407776 1.29167944 26.265625 1.31640625 C28.50193667 1.33697885 30.73824447 1.35797541 32.97454834 1.37937927 C38.85995353 1.43456824 44.74539363 1.48399158 50.63085938 1.53222656 C56.63675035 1.58246472 62.64259064 1.63813872 68.6484375 1.69335938 C80.43224998 1.80090215 92.21610551 1.90185348 104 2 C104 9.92 104 17.84 104 26 C92.25597547 26.06783226 80.5120815 26.12284884 68.76790524 26.15543652 C63.31435289 26.17107857 57.86094178 26.19229037 52.4074707 26.22631836 C47.14253416 26.2589636 41.87773329 26.276864 36.61270332 26.28463173 C34.60609362 26.29016594 32.59949117 26.30097292 30.59293938 26.31719017 C27.77786202 26.33903293 24.96334211 26.34196404 22.14819336 26.34057617 C20.90956795 26.35675491 20.90956795 26.35675491 19.6459198 26.3732605 C13.79414 26.34213401 8.84815747 25.45222526 4.2578125 21.5 C0.3839778 16.37050854 -0.12079978 13.16717586 -0.0625 6.8125 C-0.05347656 5.54019531 -0.04445313 4.26789063 -0.03515625 2.95703125 C-0.02355469 1.98121094 -0.01195312 1.00539063 0 0 Z " fill="#FB9E20" transform="translate(368,342)"/>
<path d="M0 0 C1.03254662 0.02736614 2.06509323 0.05473228 3.12892914 0.0829277 C16.03105238 0.43948766 28.92284605 0.95782927 41.8125 1.625 C39.73201795 3.70548205 38.65777147 4.18529422 35.93969727 5.11791992 C35.14028214 5.3954863 34.340867 5.67305267 33.51722717 5.95903015 C32.21125832 6.40276726 32.21125832 6.40276726 30.87890625 6.85546875 C29.97236801 7.16897781 29.06582977 7.48248688 28.13182068 7.80549622 C25.21473888 8.81331979 22.29504256 9.81329079 19.375 10.8125 C16.52964196 11.79050855 13.68490552 12.7702059 10.84156799 13.7540741 C8.92989929 14.41184915 7.01536998 15.0613617 5.09825134 15.70307922 C0.7960452 17.15811726 -3.36863813 18.64107726 -7.44116211 20.65893555 C-23.55907051 28.33533314 -41.77112455 26.41525855 -59.18640137 26.10565186 C-63.7054136 26.03312197 -68.22471004 26.00187972 -72.74414062 25.96679688 C-81.55936206 25.89246517 -90.37321732 25.77352694 -99.1875 25.625 C-99.1875 23.315 -99.1875 21.005 -99.1875 18.625 C-66.14413866 1.68178463 -36.56160566 -0.97299201 0 0 Z " fill="#2FB27F" transform="translate(171.1875,118.375)"/>
<path d="M0 0 C1.25361328 0.00322266 2.50722656 0.00644531 3.79882812 0.00976562 C5.76432617 0.02233398 5.76432617 0.02233398 7.76953125 0.03515625 C9.10481606 0.04017308 10.44010266 0.04473566 11.77539062 0.04882812 C15.04431598 0.0606293 18.31315116 0.07709328 21.58203125 0.09765625 C21.6070874 1.16089111 21.63214355 2.22412598 21.65795898 3.31958008 C21.75306208 7.31365341 21.85301924 11.30759378 21.9543457 15.30151367 C21.99730982 17.02088278 22.03900662 18.7402841 22.0793457 20.4597168 C22.13799565 22.94980527 22.20140185 25.43973723 22.265625 27.9296875 C22.28233749 28.68224319 22.29904999 29.43479889 22.31626892 30.2101593 C22.47865067 36.23427222 23.03299052 42.05820825 23.58203125 48.09765625 C9.72203125 48.09765625 -4.13796875 48.09765625 -18.41796875 48.09765625 C-18.50046875 42.30203125 -18.58296875 36.50640625 -18.66796875 30.53515625 C-18.70438477 28.71943115 -18.74080078 26.90370605 -18.77832031 25.03295898 C-18.7900161 23.57406797 -18.80020581 22.11516378 -18.80859375 20.65625 C-18.82905762 19.91475708 -18.84952148 19.17326416 -18.87060547 18.40930176 C-18.87428567 12.85127356 -17.56876475 9.69094631 -14.41796875 5.09765625 C-9.67947973 0.70588594 -6.35112957 -0.02873814 0 0 Z " fill="#A81E29" transform="translate(58.41796875,311.90234375)"/>
<path d="M0 0 C13.86 0 27.72 0 42 0 C42.99 3.403125 43.98 6.80625 45 10.3125 C45.31324219 11.38153564 45.62648437 12.45057129 45.94921875 13.55200195 C46.19285156 14.39722412 46.43648437 15.24244629 46.6875 16.11328125 C46.93886719 16.97735596 47.19023438 17.84143066 47.44921875 18.73168945 C48 21 48 21 48 24 C32.16 24 16.32 24 0 24 C0 16.08 0 8.16 0 0 Z " fill="#C1CFE8" transform="translate(40,360)"/>
<path d="M0 0 C3.72480583 3.0858224 6.53597847 5.92216761 7.23046875 10.8828125 C7.25700747 15.92516931 6.85574844 19.44281896 3.9296875 23.734375 C0.2378016 27.45652226 -2.9491364 29.52641656 -8.2578125 30.046875 C-12.94107974 29.66300064 -16.24477704 28.45383173 -20.0703125 25.734375 C-24.20746367 20.53641584 -25.72361764 16.37631062 -25.0703125 9.734375 C-22.85930303 4.73437433 -20.19231677 0.96704353 -15.0703125 -1.265625 C-9.96523441 -2.81197645 -4.64721271 -2.84093758 0 0 Z " fill="#2C2B37" transform="translate(409.0703125,290.265625)"/>
</svg>
